<svg viewBox="0 0 65 65" xmlns="http://www.w3.org/2000/svg">
  <g fill="none" fill-rule="evenodd">
    <circle fill="#FFF" cx="32.5" cy="32.5" r="32.5"/>
    <path d="M56.554 20H8.704c-.383 0-.703.193-.703.645v11.24c0 13.303 10.61 13.37 13.86 13.37 4.98 0 9.26-2.702 10.73-6.75h.08c1.47 4.048 5.75 6.75 10.73 6.75 3.26 0 13.86-.066 13.86-13.37v-11.24c0-.45-.32-.645-.7-.645z" fill="#E31B23"/>
    <path d="M26.137 33.476h-6.705c-1.086 0-1.852-1.206-1.852-2.234 0-.322.19-.45.448-.45h9.324c.318 0 .51.128.51.385 0 1.03-.638 2.3-1.724 2.3zm19.688 0h-6.707c-1.085 0-1.724-1.27-1.724-2.3 0-.256.192-.383.51-.383h9.324c.257 0 .448.128.448.45 0 1.026-.765 2.233-1.85 2.233z" fill="#FFF"/>
    <path d="M24.55 32.016c-.097.03-.197.052-.303.052-.545 0-.99-.446-.99-.996 0-.097.017-.192.044-.283h-2.06c-.18.28-.28.61-.28.97 0 .783.5 1.46 1.2 1.71h1.217c.62-.227 1.087-.78 1.18-1.46zm19.772 0c-.095.03-.195.052-.3.052-.548 0-.99-.446-.99-.996 0-.097.016-.192.042-.283h-2.06c-.18.28-.286.61-.286.97 0 .783.502 1.46 1.2 1.71h1.215c.62-.227 1.084-.78 1.18-1.46z" fill="#000"/>
  </g>
</svg>
